<svg xmlns="http://www.w3.org/2000/svg" viewBox="0 0 445.93 294.42"><defs><style>.cls-1{fill:#929ca2;}.cls-2{fill:#0b72b5;}.cls-3{fill:#39a9dc;}.cls-4{fill:#c4d0d7;}.cls-5{fill:#fff;}</style></defs><title>Risorsa 2</title><g id="Livello_2" data-name="Livello 2"><g id="Livello_1-2" data-name="Livello 1"><path class="cls-1" d="M236.87,139.44V248.27c0,2.86-.18,2.86-14.5,2.86V139.44H198V128.88c0-2.15.9-3,3-3h60.86v10.74c0,2.15-.89,2.86-3,2.86Z"/><path class="cls-1" d="M272.31,128.88a3,3,0,0,1,3-3h17.72c22.55,0,32.94,10.56,32.94,35.44,0,19.15-6.27,29.89-15.57,35.08,5.55,7.34,15,23.27,16.83,51.55,0,2.68-.54,3.58-7.34,3.58-2.33,0-5.37-.18-8.59-.36-2-30.25-10.38-45.11-14.68-51a25.11,25.11,0,0,1-3.58.18h-6.26v48c0,2.86-.18,2.86-14.5,2.86Zm23.45,9.67h-8.95v48.33h7.88c10,0,15.21-7.34,15.21-26.31C309.9,147,306.32,138.54,295.76,138.54Z"/><path class="cls-1" d="M386.33,238.07c0,12.17,0,13.07-2.86,13.07H341V128.88s.18-3,3-3h42.78c0,11.81,0,13.07-2.69,13.07H355.72v37.41h26.85c0,11.1,0,13.42-2.68,13.42H355.72v48.33Z"/><path class="cls-2" d="M445.4,238.07c0,12.17,0,13.07-2.86,13.07H400.11V128.88s.18-3,3-3h42.78c0,11.81,0,13.07-2.69,13.07H414.79v37.41h26.85c0,11.1,0,13.42-2.68,13.42H414.79v48.33Z"/><polygon class="cls-1" points="96.16 233.31 96.15 234.31 96.15 250.7 175.41 250.7 175.41 154.04 96.16 233.31"/><polygon class="cls-3" points="26.09 58.31 26.09 101.55 26.09 131.9 26.09 151.02 42.35 134.37 83.79 176.91 83.79 131.9 83.79 101.55 83.79 0 26.09 58.31"/><polygon class="cls-2" points="96.15 54.89 96.15 131.54 96.15 214.01 149.02 161.15 149.02 146.15 149.02 115.81 149.02 107.75 96.15 54.89"/><polygon class="cls-4" points="42.35 154.37 0.91 195.81 0.91 195.81 0.91 195.81 0.91 250.7 83.79 250.7 83.79 195.81 42.35 154.37"/><path class="cls-5" d="M167.25,208.35s-20.91-19.89-46.81-.56C146.87,228.89,167.25,208.35,167.25,208.35Z"/><path class="cls-5" d="M29.09,184.56s21.5-19.25,46.81.86C48.83,205.71,29.09,184.56,29.09,184.56Z"/><path class="cls-5" d="M65.11,159.6s19.64-21.14,0-46.81C44.33,139.46,65.11,159.6,65.11,159.6Z"/><path class="cls-5" d="M120.69,190.58s19.64-21.14,0-46.81C99.91,170.45,120.69,190.58,120.69,190.58Z"/><path class="cls-5" d="M52.31,55.4s1.06,28.84,33.1,33.1C81.24,54.94,52.31,55.4,52.31,55.4Z"/><path class="cls-5" d="M128,101.53s-1.06,28.84-33.1,33.1C99.07,101.07,128,101.53,128,101.53Z"/><path class="cls-2" d="M0,269.55H14.13v3H3.44v5.14h9.89v2.8H3.44v5.74H14.32v3H0Z"/><path class="cls-1" d="M20,284.61c.17,1.81,1.54,2.47,3.22,2.47,1.18,0,3.24-.25,3.16-1.87s-2.36-1.84-4.64-2.36-4.56-1.32-4.56-4.21c0-3.11,3.35-4.07,5.94-4.07,2.91,0,5.55,1.21,5.94,4.37H25.73c-.27-1.48-1.51-1.9-2.89-1.9-.91,0-2.58.22-2.58,1.46,0,1.54,2.31,1.76,4.62,2.28s4.59,1.35,4.59,4.15c0,3.38-3.41,4.62-6.35,4.62-3.57,0-6.24-1.59-6.29-4.95Z"/><path class="cls-1" d="M32.65,275h3v1.92h.06a4.75,4.75,0,0,1,4.4-2.31c4.48,0,6.65,3.41,6.65,7.56,0,3.82-1.92,7.42-6.13,7.42a5.53,5.53,0,0,1-4.75-2.23h-.05v7.09H32.65Zm7,2.09c-2.64,0-4,2-4,5,0,2.86,1.46,5,4,5,2.86,0,3.93-2.53,3.93-5S42.24,277,39.66,277Z"/><path class="cls-1" d="M62,286c0,.77.16,1.07.74,1.07a4.35,4.35,0,0,0,.77-.05v2.17a7.86,7.86,0,0,1-2,.36c-1.26,0-2.17-.44-2.42-1.73a7.29,7.29,0,0,1-4.92,1.73c-2.56,0-4.86-1.37-4.86-4.15,0-3.54,2.83-4.12,5.47-4.42,2.25-.41,4.26-.17,4.26-2,0-1.62-1.68-1.92-2.94-1.92-1.76,0-3,.71-3.13,2.25H49.83c.22-3.66,3.33-4.73,6.46-4.73,2.78,0,5.69,1.13,5.69,4.12Zm-3.13-4c-1,.63-2.47.6-3.85.85s-2.56.71-2.56,2.36c0,1.4,1.79,1.81,2.89,1.81,1.37,0,3.52-.71,3.52-2.69Z"/><path class="cls-1" d="M66.07,275h3V277l.06.05a5.09,5.09,0,0,1,4.42-2.53c3.08,0,5,1.65,5,4.84v9.76H75.42v-8.93c-.05-2.23-.93-3.19-2.78-3.19a3.46,3.46,0,0,0-3.44,3.74v8.38H66.07Z"/><path class="cls-1" d="M84.93,284.61c.17,1.81,1.54,2.47,3.22,2.47,1.18,0,3.24-.25,3.16-1.87s-2.36-1.84-4.64-2.36-4.56-1.32-4.56-4.21c0-3.11,3.35-4.07,5.94-4.07,2.91,0,5.55,1.21,5.94,4.37H90.7c-.27-1.48-1.51-1.9-2.89-1.9-.91,0-2.58.22-2.58,1.46,0,1.54,2.31,1.76,4.62,2.28s4.59,1.35,4.59,4.15c0,3.38-3.41,4.62-6.35,4.62-3.57,0-6.24-1.59-6.29-4.95Z"/><path class="cls-1" d="M97.63,269.55h3.13v3H97.63Zm0,5.41h3.13v14.21H97.63Z"/><path class="cls-1" d="M104.22,282c0-4.34,2.61-7.48,7.17-7.48s7.17,3.13,7.17,7.48-2.61,7.5-7.17,7.5S104.22,286.42,104.22,282Zm11.21,0c0-2.45-1.24-5-4-5s-4,2.56-4,5,1.24,5,4,5S115.44,284.52,115.44,282Z"/><path class="cls-1" d="M121.9,275h3V277l.06.05a5.09,5.09,0,0,1,4.42-2.53c3.08,0,5,1.65,5,4.84v9.76h-3.13v-8.93c-.05-2.23-.93-3.19-2.78-3.19a3.46,3.46,0,0,0-3.44,3.74v8.38H121.9Z"/><path class="cls-1" d="M140.83,282.87c0,2.23,1.21,4.2,3.82,4.2a3.29,3.29,0,0,0,3.46-2.36h3a6.22,6.22,0,0,1-6.43,4.84c-4.45,0-7-3.11-7-7.47,0-4,2.64-7.5,6.87-7.5,4.48,0,7.23,4,6.71,8.3Zm7.31-2.06a3.66,3.66,0,1,0-7.31,0Z"/><path class="cls-2" d="M171.53,269.55h14.13v3H175v5.14h9.89v2.8H175v5.74h10.88v3H171.53Z"/><path class="cls-1" d="M187.72,275h3.41l3.6,10.91h.06L198.25,275h3.24l-5.08,14.21h-3.52Z"/><path class="cls-1" d="M203.44,282c0-4.34,2.61-7.48,7.17-7.48s7.17,3.13,7.17,7.48-2.61,7.5-7.17,7.5S203.44,286.42,203.44,282Zm11.21,0c0-2.45-1.24-5-4-5s-4,2.56-4,5,1.24,5,4,5S214.66,284.52,214.66,282Z"/><path class="cls-1" d="M221.2,269.55h3.13v19.62H221.2Z"/><path class="cls-1" d="M240.93,289.17h-3.08v-2h-.05a4.77,4.77,0,0,1-4,2.36c-3.71,0-5.3-1.87-5.3-5.58v-9h3.13v8.71c0,2.5,1,3.41,2.72,3.41,2.61,0,3.49-1.68,3.49-3.87V275h3.13Z"/><path class="cls-1" d="M244.45,275H256v2.2l-8.13,9.54h8.55v2.47H243.9V287l7.86-9.54h-7.31Z"/><path class="cls-1" d="M259.49,269.55h3.13v3h-3.13Zm0,5.41h3.13v14.21h-3.13Z"/><path class="cls-1" d="M266.08,282c0-4.34,2.61-7.48,7.17-7.48s7.17,3.13,7.17,7.48-2.61,7.5-7.17,7.5S266.08,286.42,266.08,282Zm11.21,0c0-2.45-1.24-5-4-5s-4,2.56-4,5,1.24,5,4,5S277.29,284.52,277.29,282Z"/><path class="cls-1" d="M283.75,275h3V277l.05.05a5.09,5.09,0,0,1,4.43-2.53c3.08,0,5,1.65,5,4.84v9.76H293.1v-8.93c-.05-2.23-.93-3.19-2.78-3.19a3.46,3.46,0,0,0-3.44,3.74v8.38h-3.13Z"/><path class="cls-1" d="M302.69,282.87c0,2.23,1.21,4.2,3.82,4.2a3.29,3.29,0,0,0,3.46-2.36h3a6.22,6.22,0,0,1-6.43,4.84c-4.45,0-7-3.11-7-7.47,0-4,2.64-7.5,6.87-7.5,4.48,0,7.23,4,6.71,8.3Zm7.31-2.06a3.66,3.66,0,1,0-7.31,0Z"/><path class="cls-2" d="M333.39,269.55h14.12v3H336.83v5.14h9.89v2.8h-9.89v5.74h10.88v3H333.39Z"/><path class="cls-1" d="M351.07,269.55h3.13v19.62h-3.13Z"/><path class="cls-1" d="M360.77,282.87c0,2.23,1.21,4.2,3.82,4.2a3.29,3.29,0,0,0,3.46-2.36h3a6.22,6.22,0,0,1-6.43,4.84c-4.45,0-7-3.11-7-7.47,0-4,2.64-7.5,6.87-7.5,4.48,0,7.23,4,6.71,8.3Zm7.31-2.06a3.66,3.66,0,1,0-7.31,0Z"/><path class="cls-1" d="M372.92,275h3.41l3.6,10.91H380L383.44,275h3.24l-5.08,14.21h-3.52Z"/><path class="cls-1" d="M401.2,286c0,.77.16,1.07.74,1.07a4.36,4.36,0,0,0,.77-.05v2.17a7.86,7.86,0,0,1-2,.36c-1.27,0-2.17-.44-2.42-1.73a7.29,7.29,0,0,1-4.92,1.73c-2.56,0-4.87-1.37-4.87-4.15,0-3.54,2.83-4.12,5.47-4.42,2.25-.41,4.26-.17,4.26-2,0-1.62-1.68-1.92-2.94-1.92-1.76,0-3,.71-3.13,2.25h-3.13c.22-3.66,3.32-4.73,6.46-4.73,2.78,0,5.69,1.13,5.69,4.12Zm-3.13-4c-1,.63-2.47.6-3.85.85s-2.55.71-2.55,2.36c0,1.4,1.79,1.81,2.88,1.81,1.37,0,3.52-.71,3.52-2.69Z"/><path class="cls-1" d="M403.87,275h2.36V270.7h3.13V275h2.83v2.34h-2.83v7.58c0,1.29.11,2,1.51,2a5.32,5.32,0,0,0,1.32-.11v2.42c-.69.05-1.35.17-2,.17-3.27,0-3.87-1.26-3.93-3.63V277.3h-2.36Z"/><path class="cls-1" d="M414.5,282c0-4.34,2.61-7.48,7.17-7.48s7.17,3.13,7.17,7.48-2.61,7.5-7.17,7.5S414.5,286.42,414.5,282Zm11.21,0c0-2.45-1.24-5-4-5s-4,2.56-4,5,1.24,5,4,5S425.71,284.52,425.71,282Z"/><path class="cls-1" d="M432.17,275h2.94v2.75h.06a4.59,4.59,0,0,1,4.15-3.13,7.42,7.42,0,0,1,1.18.08v3a11.22,11.22,0,0,0-1.35-.14c-2.14,0-3.85,1.73-3.85,4.86v6.76h-3.13Z"/><path class="cls-1" d="M442.65,269.55h3.13v3h-3.13Zm0,5.41h3.13v14.21h-3.13Z"/></g></g></svg>